<svg width="116" height="72" viewBox="0 0 116 72" fill="none" xmlns="http://www.w3.org/2000/svg">
<g clip-path="url(#clip0_1271_44761)">
<path fill-rule="evenodd" clip-rule="evenodd" d="M57.776 68.0703C28.1763 68.0703 4.18286 53.6683 4.18286 35.9054C4.18286 18.1414 28.1763 3.7395 57.776 3.7395C87.3735 3.7395 111.367 18.1414 111.367 35.9054C111.367 53.6683 87.3735 68.0703 57.776 68.0703Z" fill="#C30A14"/>
<path fill-rule="evenodd" clip-rule="evenodd" d="M73.6504 50.5374L60.408 44.8504L60.4135 26.8029L66.6636 24.2139V42.382L73.6453 45.0399L73.6504 50.5374Z" fill="#FFFFFE"/>
<path fill-rule="evenodd" clip-rule="evenodd" d="M54.5418 31.2886L50.0446 29.9021L50.0524 33.7494L54.5049 34.5054L54.5035 37.391L50.0524 38.1387L50.0423 41.6026L54.5418 39.972L54.5413 44.5303L45.0225 48.6993L45.0278 22.856L54.5418 26.8082V31.2886Z" fill="#FFFFFE"/>
<path fill-rule="evenodd" clip-rule="evenodd" d="M41.6365 50.183L26.5969 56.7543V15.2058L33.5016 18.0896L33.5093 47.5887L41.6365 44.6564V50.183Z" fill="#FFFFFE"/>
<mask id="mask0_1271_44761" style="mask-type:alpha" maskUnits="userSpaceOnUse" x="0" y="0" width="116" height="72">
<path fill-rule="evenodd" clip-rule="evenodd" d="M0 0H115.39V71.7436H0V0Z" fill="white"/>
</mask>
<g mask="url(#mask0_1271_44761)">
<path fill-rule="evenodd" clip-rule="evenodd" d="M84.831 55.3393L78.0275 52.42V37.8945L70.3599 22.6946L75.0589 20.7363L80.2673 31.0677L83.6855 17.1642L89.9666 14.5759L84.8338 36.4721L84.831 55.3393Z" fill="#FFFFFE"/>
<path fill-rule="evenodd" clip-rule="evenodd" d="M57.7776 68.0701C28.1777 68.0701 4.18429 53.6681 4.18429 35.905C4.18429 18.1412 28.1777 3.7392 57.7776 3.7392C87.3747 3.7392 111.369 18.1412 111.369 35.905C111.369 53.6681 87.3747 68.0701 57.7776 68.0701ZM57.6904 0C25.8214 0 -0.0117188 16.0613 -0.0117188 35.8719C-0.0117188 55.6816 25.8214 71.7436 57.6904 71.7436C89.5564 71.7436 115.39 55.6816 115.39 35.8719C115.39 16.0613 89.5564 0 57.6904 0Z" fill="#FFFFFE"/>
</g>
</g>
<defs>
<clipPath id="clip0_1271_44761">
<rect width="116" height="72" fill="white"/>
</clipPath>
</defs>
</svg>
